<svg width="212" height="68" xmlns="http://www.w3.org/2000/svg" fill="none">

 <g>
  <title>Layer 1</title>
  <path id="svg_1" fill="white" d="m20.5745,34.6485l-11.23436,11.4877l0,16.1199l-8.84014,0l0,-62.2561l8.84014,0l0,34.8338l33.51886,-34.8338l10.1293,0l-26.3362,27.9782l28.1779,34.2779l-10.3135,0l-23.942,-27.6076z"/>
  <path id="svg_2" fill="white" d="m119.289,57.2534l3.5,-6.6703c4.051,2.7793 10.313,4.8174 16.391,4.8174c7.919,0 11.05,-2.4087 11.05,-6.485c0,-10.5613 -29.652,-1.4823 -29.652,-20.1962c0,-8.5231 7.551,-14.0817 19.522,-14.0817c6.078,0 13.076,1.6675 17.128,4.2616l-3.683,6.6703c-4.236,-2.7793 -8.84,-3.7058 -13.445,-3.7058c-7.366,0 -11.05,2.7793 -11.05,6.485c0,11.1172 29.652,2.0382 29.652,20.3815c0,8.5232 -7.736,13.8965 -20.259,13.8965c-7.551,0.1853 -15.286,-2.2235 -19.154,-5.3733z"/>
  <path id="svg_3" fill="white" d="m210.822,33.7221l0,28.534l-8.104,0l0,-6.2997c-2.762,4.2616 -8.103,6.6703 -15.47,6.6703c-10.682,0 -17.312,-5.7439 -17.312,-13.8964c0,-7.5968 4.788,-13.7112 18.785,-13.7112l13.445,0l0,-1.6676c0,-7.2261 -4.236,-11.3024 -12.524,-11.3024c-5.525,0 -11.234,2.0381 -14.918,5.0027l-3.499,-6.485c4.789,-3.891 11.787,-6.1145 19.338,-6.1145c13.076,0.1853 20.259,6.485 20.259,19.2698zm-8.472,14.0817l0,-6.6703l-13.076,0c-8.472,0 -10.866,3.3352 -10.866,7.2262c0,4.6321 3.867,7.5967 10.313,7.5967c6.446,0.1853 11.603,-2.594 13.629,-8.1526z"/>
  <path id="svg_4" fill="white" d="m92.0322,49.8419l0,12.5995l5.3409,-3.1499l0,-12.5994l-5.3409,3.1498z"/>
  <path id="svg_5" fill="white" d="m106.766,34.4632l-21.9164,-12.7848l-12.1552,-7.0408l-11.971,20.9373l0.1842,19.6403l21.732,12.7848l2.21,-1.297l0,-18.5286l9.761,-17.2316l9.9454,5.7438l0,18.5286l2.21,-1.297l0,-19.455z"/>
  <path id="svg_6" fill="white" d="m991.685,38.8l-8.928,0l-1.848,4.2l-2.472,0l7.608,-16.8l2.376,0l7.632,16.8l-2.52,0l-1.848,-4.2zm-0.84,-1.92l-3.624,-8.232l-3.624,8.232l7.248,0zm12.805,6.264c-1.3,0 -2.46,-0.28 -3.48,-0.84c-1.008,-0.56 -1.8,-1.328 -2.376,-2.304c-0.576,-0.992 -0.864,-2.112 -0.864,-3.36c0,-1.248 0.288,-2.36 0.864,-3.336c0.576,-0.992 1.368,-1.76 2.376,-2.304c1.02,-0.56 2.18,-0.84 3.48,-0.84c1.15,0 2.18,0.232 3.07,0.696c0.91,0.464 1.62,1.136 2.11,2.016l-1.75,1.128c-0.4,-0.608 -0.89,-1.064 -1.49,-1.368c-0.59,-0.304 -1.24,-0.456 -1.96,-0.456c-0.84,0 -1.59,0.184 -2.26,0.552c-0.66,0.368 -1.18,0.896 -1.56,1.584c-0.368,0.672 -0.552,1.448 -0.552,2.328c0,0.896 0.184,1.688 0.552,2.376c0.38,0.672 0.9,1.192 1.56,1.56c0.67,0.368 1.42,0.552 2.26,0.552c0.72,0 1.37,-0.152 1.96,-0.456c0.6,-0.304 1.09,-0.76 1.49,-1.368l1.75,1.104c-0.49,0.88 -1.2,1.56 -2.11,2.04c-0.89,0.464 -1.92,0.696 -3.07,0.696zm13.52,0c-1.29,0 -2.45,-0.28 -3.48,-0.84c-1,-0.56 -1.8,-1.328 -2.37,-2.304c-0.58,-0.992 -0.87,-2.112 -0.87,-3.36c0,-1.248 0.29,-2.36 0.87,-3.336c0.57,-0.992 1.37,-1.76 2.37,-2.304c1.03,-0.56 2.19,-0.84 3.48,-0.84c1.16,0 2.18,0.232 3.08,0.696c0.91,0.464 1.61,1.136 2.11,2.016l-1.75,1.128c-0.4,-0.608 -0.9,-1.064 -1.49,-1.368c-0.59,-0.304 -1.25,-0.456 -1.97,-0.456c-0.83,0 -1.58,0.184 -2.26,0.552c-0.65,0.368 -1.17,0.896 -1.56,1.584c-0.36,0.672 -0.55,1.448 -0.55,2.328c0,0.896 0.19,1.688 0.55,2.376c0.39,0.672 0.91,1.192 1.56,1.56c0.68,0.368 1.43,0.552 2.26,0.552c0.72,0 1.38,-0.152 1.97,-0.456c0.59,-0.304 1.09,-0.76 1.49,-1.368l1.75,1.104c-0.5,0.88 -1.2,1.56 -2.11,2.04c-0.9,0.464 -1.92,0.696 -3.08,0.696zm20.03,-12.864l0,12.72l-2.19,0l0,-1.92c-0.46,0.656 -1.08,1.168 -1.85,1.536c-0.75,0.352 -1.57,0.528 -2.47,0.528c-1.69,0 -3.03,-0.464 -4.01,-1.392c-0.97,-0.944 -1.46,-2.328 -1.46,-4.152l0,-7.32l2.3,0l0,7.056c0,1.232 0.3,2.168 0.89,2.808c0.59,0.624 1.44,0.936 2.55,0.936c1.21,0 2.17,-0.368 2.88,-1.104c0.7,-0.736 1.05,-1.776 1.05,-3.12l0,-6.576l2.31,0zm15.88,6.432c0,0.176 -0.02,0.408 -0.05,0.696l-10.32,0c0.14,1.12 0.63,2.024 1.46,2.712c0.85,0.672 1.9,1.008 3.15,1.008c1.52,0 2.74,-0.512 3.67,-1.536l1.27,1.488c-0.57,0.672 -1.29,1.184 -2.16,1.536c-0.85,0.352 -1.8,0.528 -2.85,0.528c-1.35,0 -2.54,-0.272 -3.58,-0.816c-1.04,-0.56 -1.85,-1.336 -2.42,-2.328c-0.56,-0.992 -0.84,-2.112 -0.84,-3.36c0,-1.232 0.27,-2.344 0.81,-3.336c0.56,-0.992 1.32,-1.76 2.28,-2.304c0.98,-0.56 2.07,-0.84 3.29,-0.84c1.22,0 2.3,0.28 3.24,0.84c0.96,0.544 1.7,1.312 2.23,2.304c0.55,0.992 0.82,2.128 0.82,3.408zm-6.29,-4.608c-1.1,0 -2.03,0.336 -2.78,1.008c-0.74,0.672 -1.17,1.552 -1.3,2.64l8.16,0c-0.13,-1.072 -0.57,-1.944 -1.32,-2.616c-0.74,-0.688 -1.66,-1.032 -2.76,-1.032zm9.49,-1.824l2.3,0l0,12.72l-2.3,0l0,-12.72zm1.15,-2.448c-0.45,0 -0.82,-0.144 -1.13,-0.432c-0.29,-0.288 -0.43,-0.64 -0.43,-1.056c0,-0.416 0.14,-0.768 0.43,-1.056c0.31,-0.304 0.68,-0.456 1.13,-0.456c0.45,0 0.82,0.144 1.1,0.432c0.31,0.272 0.46,0.616 0.46,1.032c0,0.432 -0.15,0.8 -0.46,1.104c-0.28,0.288 -0.65,0.432 -1.1,0.432zm5.55,-2.64l2.3,0l0,17.808l-2.3,0l0,-17.808z"/>
  <path id="svg_7" fill="white" d="m978.461,45.4l89.029,0l0,1.2l-89.029,0l0,-1.2z"/>
  <path id="svg_8" fill="white" d="m1144.41,38.8l-8.93,0l-1.84,4.2l-2.48,0l7.61,-16.8l2.38,0l7.63,16.8l-2.52,0l-1.85,-4.2zm-0.84,-1.92l-3.62,-8.232l-3.63,8.232l7.25,0zm20.71,-10.68c2.18,0 3.89,0.52 5.14,1.56c1.25,1.04 1.87,2.472 1.87,4.296c0,1.824 -0.62,3.256 -1.87,4.296c-1.25,1.04 -2.96,1.56 -5.14,1.56l-4.15,0l0,5.088l-2.4,0l0,-16.8l6.55,0zm-0.07,9.624c1.52,0 2.68,-0.32 3.48,-0.96c0.8,-0.656 1.2,-1.592 1.2,-2.808c0,-1.216 -0.4,-2.144 -1.2,-2.784c-0.8,-0.656 -1.96,-0.984 -3.48,-0.984l-4.08,0l0,7.536l4.08,0zm12.27,-3.408c0.4,-0.736 0.99,-1.296 1.77,-1.68c0.79,-0.384 1.74,-0.576 2.86,-0.576l0,2.232c-0.13,-0.016 -0.3,-0.024 -0.53,-0.024c-1.25,0 -2.23,0.376 -2.95,1.128c-0.7,0.736 -1.06,1.792 -1.06,3.168l0,6.336l-2.3,0l0,-12.72l2.21,0l0,2.136zm12.8,10.728c-1.26,0 -2.4,-0.28 -3.41,-0.84c-1.01,-0.56 -1.8,-1.328 -2.37,-2.304c-0.56,-0.992 -0.84,-2.112 -0.84,-3.36c0,-1.248 0.28,-2.36 0.84,-3.336c0.57,-0.992 1.36,-1.76 2.37,-2.304c1.01,-0.56 2.15,-0.84 3.41,-0.84c1.26,0 2.39,0.28 3.38,0.84c1.01,0.544 1.8,1.312 2.36,2.304c0.57,0.976 0.86,2.088 0.86,3.336c0,1.248 -0.29,2.368 -0.86,3.36c-0.56,0.976 -1.35,1.744 -2.36,2.304c-0.99,0.56 -2.12,0.84 -3.38,0.84zm0,-2.016c0.82,0 1.54,-0.184 2.18,-0.552c0.66,-0.384 1.17,-0.912 1.54,-1.584c0.37,-0.688 0.55,-1.472 0.55,-2.352c0,-0.88 -0.18,-1.656 -0.55,-2.328c-0.37,-0.688 -0.88,-1.216 -1.54,-1.584c-0.64,-0.368 -1.36,-0.552 -2.18,-0.552c-0.82,0 -1.55,0.184 -2.21,0.552c-0.64,0.368 -1.15,0.896 -1.53,1.584c-0.37,0.672 -0.56,1.448 -0.56,2.328c0,0.88 0.19,1.664 0.56,2.352c0.38,0.672 0.89,1.2 1.53,1.584c0.66,0.368 1.39,0.552 2.21,0.552zm16.53,-10.968c1.23,0 2.34,0.272 3.31,0.816c0.98,0.544 1.74,1.304 2.28,2.28c0.56,0.976 0.84,2.104 0.84,3.384c0,1.28 -0.28,2.416 -0.84,3.408c-0.54,0.976 -1.3,1.736 -2.28,2.28c-0.97,0.544 -2.08,0.816 -3.31,0.816c-0.91,0 -1.75,-0.176 -2.52,-0.528c-0.75,-0.352 -1.39,-0.864 -1.92,-1.536l0,6.576l-2.3,0l0,-17.376l2.2,0l0,2.016c0.52,-0.704 1.16,-1.232 1.95,-1.584c0.78,-0.368 1.65,-0.552 2.59,-0.552zm-0.19,10.968c0.81,0 1.54,-0.184 2.18,-0.552c0.66,-0.384 1.17,-0.912 1.54,-1.584c0.38,-0.688 0.57,-1.472 0.57,-2.352c0,-0.88 -0.19,-1.656 -0.57,-2.328c-0.37,-0.688 -0.88,-1.216 -1.54,-1.584c-0.64,-0.368 -1.37,-0.552 -2.18,-0.552c-0.8,0 -1.53,0.192 -2.19,0.576c-0.64,0.368 -1.15,0.888 -1.53,1.56c-0.37,0.672 -0.55,1.448 -0.55,2.328c0,0.88 0.18,1.664 0.55,2.352c0.37,0.672 0.88,1.2 1.53,1.584c0.66,0.368 1.39,0.552 2.19,0.552zm15.25,2.016c-1.26,0 -2.4,-0.28 -3.4,-0.84c-1.01,-0.56 -1.8,-1.328 -2.38,-2.304c-0.56,-0.992 -0.84,-2.112 -0.84,-3.36c0,-1.248 0.28,-2.36 0.84,-3.336c0.58,-0.992 1.37,-1.76 2.38,-2.304c1,-0.56 2.14,-0.84 3.4,-0.84c1.27,0 2.4,0.28 3.39,0.84c1.01,0.544 1.79,1.312 2.35,2.304c0.58,0.976 0.86,2.088 0.86,3.336c0,1.248 -0.28,2.368 -0.86,3.36c-0.56,0.976 -1.34,1.744 -2.35,2.304c-0.99,0.56 -2.12,0.84 -3.39,0.84zm0,-2.016c0.82,0 1.55,-0.184 2.19,-0.552c0.65,-0.384 1.17,-0.912 1.53,-1.584c0.37,-0.688 0.56,-1.472 0.56,-2.352c0,-0.88 -0.19,-1.656 -0.56,-2.328c-0.36,-0.688 -0.88,-1.216 -1.53,-1.584c-0.64,-0.368 -1.37,-0.552 -2.19,-0.552c-0.81,0 -1.55,0.184 -2.2,0.552c-0.64,0.368 -1.16,0.896 -1.54,1.584c-0.37,0.672 -0.55,1.448 -0.55,2.328c0,0.88 0.18,1.664 0.55,2.352c0.38,0.672 0.9,1.2 1.54,1.584c0.65,0.368 1.39,0.552 2.2,0.552zm13.44,2.016c-1.04,0 -2.04,-0.136 -3,-0.408c-0.96,-0.288 -1.71,-0.648 -2.26,-1.08l0.96,-1.824c0.56,0.4 1.24,0.72 2.04,0.96c0.8,0.24 1.61,0.36 2.43,0.36c2.01,0 3.02,-0.576 3.02,-1.728c0,-0.384 -0.14,-0.688 -0.41,-0.912c-0.27,-0.224 -0.61,-0.384 -1.03,-0.48c-0.4,-0.112 -0.98,-0.232 -1.73,-0.36c-1.02,-0.16 -1.86,-0.344 -2.52,-0.552c-0.64,-0.208 -1.19,-0.56 -1.65,-1.056c-0.47,-0.496 -0.7,-1.192 -0.7,-2.088c0,-1.152 0.48,-2.072 1.44,-2.76c0.96,-0.704 2.25,-1.056 3.86,-1.056c0.85,0 1.7,0.104 2.55,0.312c0.85,0.208 1.54,0.488 2.09,0.84l-0.99,1.824c-1.04,-0.672 -2.26,-1.008 -3.67,-1.008c-0.98,0 -1.72,0.16 -2.23,0.48c-0.51,0.32 -0.77,0.744 -0.77,1.272c0,0.416 0.14,0.744 0.43,0.984c0.29,0.24 0.64,0.416 1.06,0.528c0.43,0.112 1.03,0.24 1.8,0.384c1.02,0.176 1.85,0.368 2.47,0.576c0.64,0.192 1.18,0.528 1.63,1.008c0.45,0.48 0.67,1.152 0.67,2.016c0,1.152 -0.49,2.072 -1.48,2.76c-0.98,0.672 -2.32,1.008 -4.01,1.008z"/>
 </g>
</svg>